<svg width="201" height="93" viewBox="0 0 201 93" fill="none" xmlns="http://www.w3.org/2000/svg">
<path d="M16.884 83V78.59L16.464 77.624V69.728C16.464 68.328 16.03 67.236 15.162 66.452C14.322 65.668 13.02 65.276 11.256 65.276C10.052 65.276 8.862 65.472 7.686 65.864C6.538 66.228 5.558 66.732 4.746 67.376L2.394 62.798C3.626 61.93 5.11 61.258 6.846 60.782C8.582 60.306 10.346 60.068 12.138 60.068C15.582 60.068 18.256 60.88 20.16 62.504C22.064 64.128 23.016 66.662 23.016 70.106V83H16.884ZM9.996 83.336C8.232 83.336 6.72 83.042 5.46 82.454C4.2 81.838 3.234 81.012 2.562 79.976C1.89 78.94 1.554 77.778 1.554 76.49C1.554 75.146 1.876 73.97 2.52 72.962C3.192 71.954 4.242 71.17 5.67 70.61C7.098 70.022 8.96 69.728 11.256 69.728H17.262V73.55H11.97C10.43 73.55 9.366 73.802 8.778 74.306C8.218 74.81 7.938 75.44 7.938 76.196C7.938 77.036 8.26 77.708 8.904 78.212C9.576 78.688 10.486 78.926 11.634 78.926C12.726 78.926 13.706 78.674 14.574 78.17C15.442 77.638 16.072 76.868 16.464 75.86L17.472 78.884C16.996 80.34 16.128 81.446 14.868 82.202C13.608 82.958 11.984 83.336 9.996 83.336ZM28.9459 83V60.404H35.2039V66.788L34.3219 64.94C34.9939 63.344 36.0719 62.14 37.5559 61.328C39.0399 60.488 40.8459 60.068 42.9739 60.068V66.116C42.6939 66.088 42.4419 66.074 42.2179 66.074C41.9939 66.046 41.7559 66.032 41.5039 66.032C39.7119 66.032 38.2559 66.55 37.1359 67.586C36.0439 68.594 35.4979 70.176 35.4979 72.332V83H28.9459ZM46.8697 83V60.404H53.4217V83H46.8697ZM50.1457 57.254C48.9417 57.254 47.9617 56.904 47.2057 56.204C46.4497 55.504 46.0717 54.636 46.0717 53.6C46.0717 52.564 46.4497 51.696 47.2057 50.996C47.9617 50.296 48.9417 49.946 50.1457 49.946C51.3497 49.946 52.3297 50.282 53.0857 50.954C53.8417 51.598 54.2197 52.438 54.2197 53.474C54.2197 54.566 53.8417 55.476 53.0857 56.204C52.3577 56.904 51.3777 57.254 50.1457 57.254ZM70.4225 83.336C67.9865 83.336 65.8165 82.846 63.9125 81.866C62.0085 80.858 60.5105 79.472 59.4185 77.708C58.3545 75.944 57.8225 73.942 57.8225 71.702C57.8225 69.434 58.3545 67.432 59.4185 65.696C60.5105 63.932 62.0085 62.56 63.9125 61.58C65.8165 60.572 67.9865 60.068 70.4225 60.068C72.8025 60.068 74.8745 60.572 76.6385 61.58C78.4025 62.56 79.7045 63.974 80.5445 65.822L75.4625 68.552C74.8745 67.488 74.1325 66.704 73.2365 66.2C72.3685 65.696 71.4165 65.444 70.3805 65.444C69.2605 65.444 68.2525 65.696 67.3565 66.2C66.4605 66.704 65.7465 67.418 65.2145 68.342C64.7105 69.266 64.4585 70.386 64.4585 71.702C64.4585 73.018 64.7105 74.138 65.2145 75.062C65.7465 75.986 66.4605 76.7 67.3565 77.204C68.2525 77.708 69.2605 77.96 70.3805 77.96C71.4165 77.96 72.3685 77.722 73.2365 77.246C74.1325 76.742 74.8745 75.944 75.4625 74.852L80.5445 77.624C79.7045 79.444 78.4025 80.858 76.6385 81.866C74.8745 82.846 72.8025 83.336 70.4225 83.336ZM94.7819 83.336C92.3739 83.336 90.2319 82.832 88.3559 81.824C86.5079 80.816 85.0379 79.444 83.9459 77.708C82.8819 75.944 82.3499 73.942 82.3499 71.702C82.3499 69.434 82.8819 67.432 83.9459 65.696C85.0379 63.932 86.5079 62.56 88.3559 61.58C90.2319 60.572 92.3739 60.068 94.7819 60.068C97.1619 60.068 99.2899 60.572 101.166 61.58C103.042 62.56 104.512 63.918 105.576 65.654C106.64 67.39 107.172 69.406 107.172 71.702C107.172 73.942 106.64 75.944 105.576 77.708C104.512 79.444 103.042 80.816 101.166 81.824C99.2899 82.832 97.1619 83.336 94.7819 83.336ZM94.7819 77.96C95.8739 77.96 96.8539 77.708 97.7219 77.204C98.5899 76.7 99.2759 75.986 99.7799 75.062C100.284 74.11 100.536 72.99 100.536 71.702C100.536 70.386 100.284 69.266 99.7799 68.342C99.2759 67.418 98.5899 66.704 97.7219 66.2C96.8539 65.696 95.8739 65.444 94.7819 65.444C93.6899 65.444 92.7099 65.696 91.8419 66.2C90.9739 66.704 90.2739 67.418 89.7419 68.342C89.2379 69.266 88.9859 70.386 88.9859 71.702C88.9859 72.99 89.2379 74.11 89.7419 75.062C90.2739 75.986 90.9739 76.7 91.8419 77.204C92.7099 77.708 93.6899 77.96 94.7819 77.96ZM121.253 83.336C119.125 83.336 117.207 82.86 115.499 81.908C113.791 80.928 112.433 79.57 111.425 77.834C110.445 76.098 109.955 74.054 109.955 71.702C109.955 69.322 110.445 67.264 111.425 65.528C112.433 63.792 113.791 62.448 115.499 61.496C117.207 60.544 119.125 60.068 121.253 60.068C123.157 60.068 124.823 60.488 126.251 61.328C127.679 62.168 128.785 63.442 129.569 65.15C130.353 66.858 130.745 69.042 130.745 71.702C130.745 74.334 130.367 76.518 129.611 78.254C128.855 79.962 127.763 81.236 126.335 82.076C124.935 82.916 123.241 83.336 121.253 83.336ZM122.387 77.96C123.451 77.96 124.417 77.708 125.285 77.204C126.153 76.7 126.839 75.986 127.343 75.062C127.875 74.11 128.141 72.99 128.141 71.702C128.141 70.386 127.875 69.266 127.343 68.342C126.839 67.418 126.153 66.704 125.285 66.2C124.417 65.696 123.451 65.444 122.387 65.444C121.295 65.444 120.315 65.696 119.447 66.2C118.579 66.704 117.879 67.418 117.347 68.342C116.843 69.266 116.591 70.386 116.591 71.702C116.591 72.99 116.843 74.11 117.347 75.062C117.879 75.986 118.579 76.7 119.447 77.204C120.315 77.708 121.295 77.96 122.387 77.96ZM128.309 83V78.38L128.435 71.66L128.015 64.982V51.836H134.567V83H128.309ZM151.845 83.336C149.269 83.336 147.001 82.832 145.041 81.824C143.109 80.816 141.611 79.444 140.547 77.708C139.483 75.944 138.951 73.942 138.951 71.702C138.951 69.434 139.469 67.432 140.505 65.696C141.569 63.932 143.011 62.56 144.831 61.58C146.651 60.572 148.709 60.068 151.005 60.068C153.217 60.068 155.205 60.544 156.969 61.496C158.761 62.42 160.175 63.764 161.211 65.528C162.247 67.264 162.765 69.35 162.765 71.786C162.765 72.038 162.751 72.332 162.723 72.668C162.695 72.976 162.667 73.27 162.639 73.55H144.285V69.728H159.195L156.675 70.862C156.675 69.686 156.437 68.664 155.961 67.796C155.485 66.928 154.827 66.256 153.987 65.78C153.147 65.276 152.167 65.024 151.047 65.024C149.927 65.024 148.933 65.276 148.065 65.78C147.225 66.256 146.567 66.942 146.091 67.838C145.615 68.706 145.377 69.742 145.377 70.946V71.954C145.377 73.186 145.643 74.278 146.175 75.23C146.735 76.154 147.505 76.868 148.485 77.372C149.493 77.848 150.669 78.086 152.013 78.086C153.217 78.086 154.267 77.904 155.163 77.54C156.087 77.176 156.927 76.63 157.683 75.902L161.169 79.682C160.133 80.858 158.831 81.768 157.263 82.412C155.695 83.028 153.889 83.336 151.845 83.336Z" fill="black"/>
<path d="M188.579 83.66C186.526 83.66 184.766 82.9633 183.299 81.57C181.832 80.1033 181.099 78.27 181.099 76.07C181.099 73.87 181.832 72.0733 183.299 70.68C184.766 69.2867 186.526 68.59 188.579 68.59C190.559 68.59 192.246 69.2867 193.639 70.68C195.106 72.0733 195.839 73.87 195.839 76.07C195.839 78.27 195.106 80.1033 193.639 81.57C192.246 82.9633 190.559 83.66 188.579 83.66Z" fill="#0918CA"/>
</svg>
